<?xml version="1.0" encoding="UTF-8" standalone="no"?>
<!-- Created with Inkscape (http://www.inkscape.org/) -->

<svg
   xmlns:dc="http://purl.org/dc/elements/1.1/"
   xmlns:cc="http://creativecommons.org/ns#"
   xmlns:rdf="http://www.w3.org/1999/02/22-rdf-syntax-ns#"
   xmlns:svg="http://www.w3.org/2000/svg"
   xmlns="http://www.w3.org/2000/svg"
   xmlns:sodipodi="http://sodipodi.sourceforge.net/DTD/sodipodi-0.dtd"
   xmlns:inkscape="http://www.inkscape.org/namespaces/inkscape"
   id="svg3531"
   version="1.1"
   inkscape:version="0.91 r13725"
   xml:space="preserve"
   width="268.63614"
   height="64"
   viewBox="0 0 268.63614 63.311249"
   sodipodi:docname="e-contract-logoFINAL.svg"
   inkscape:export-filename="/home/fcorneli/Documents/e-contract-logo.png"
   inkscape:export-xdpi="90"
   inkscape:export-ydpi="90"><metadata
     id="metadata3537"><rdf:RDF><cc:Work
         rdf:about=""><dc:format>image/svg+xml</dc:format><dc:type
           rdf:resource="http://purl.org/dc/dcmitype/StillImage" /><dc:title></dc:title></cc:Work></rdf:RDF></metadata><defs
     id="defs3535"><clipPath
       clipPathUnits="userSpaceOnUse"
       id="clipPath3545"><path
         d="m 0,442.208 442.208,0 L 442.208,0 0,0 0,442.208 Z"
         id="path3547"
         inkscape:connector-curvature="0" /></clipPath><linearGradient
       x1="0"
       y1="0"
       x2="1"
       y2="0"
       gradientUnits="userSpaceOnUse"
       gradientTransform="matrix(57.287537,-57.287537,-57.287537,-57.287537,116.88916,243.44189)"
       spreadMethod="pad"
       id="linearGradient3677"><stop
         style="stop-opacity:1;stop-color:#c7eafb"
         offset="0"
         id="stop3679" /><stop
         style="stop-opacity:1;stop-color:#c7eafb"
         offset="0.00402832"
         id="stop3681" /><stop
         style="stop-opacity:1;stop-color:#00aeef"
         offset="0.241928"
         id="stop3683" /><stop
         style="stop-opacity:1;stop-color:#00aeef"
         offset="0.54276822"
         id="stop3685" /><stop
         style="stop-opacity:1;stop-color:#003863"
         offset="1"
         id="stop3687" /></linearGradient><clipPath
       clipPathUnits="userSpaceOnUse"
       id="clipPath3695"><path
         d="m 0,442.208 442.208,0 L 442.208,0 0,0 0,442.208 Z"
         id="path3697"
         inkscape:connector-curvature="0" /></clipPath></defs><sodipodi:namedview
     pagecolor="#ffffff"
     bordercolor="#666666"
     borderopacity="1"
     objecttolerance="10"
     gridtolerance="10"
     guidetolerance="10"
     inkscape:pageopacity="0"
     inkscape:pageshadow="2"
     inkscape:window-width="3840"
     inkscape:window-height="2065"
     id="namedview3533"
     showgrid="false"
     inkscape:zoom="3.3812142"
     inkscape:cx="75.746282"
     inkscape:cy="30.907495"
     inkscape:window-x="0"
     inkscape:window-y="25"
     inkscape:window-maximized="1"
     inkscape:current-layer="g3539"
     fit-margin-top="0"
     fit-margin-left="0"
     fit-margin-right="0"
     fit-margin-bottom="0" /><g
     id="g3539"
     inkscape:groupmode="layer"
     inkscape:label="e-contract-logoFINAL"
     transform="matrix(1.25,0,0,-1.25,-141.63125,308.78375)"><g
       id="g3541"><g
         id="g3543"
         clip-path="url(#clipPath3545)"><g
           id="g3549"
           transform="translate(181.8003,208.7354)"><path
             d="m 0,0 c -0.456,-0.371 -1.063,-0.555 -1.825,-0.555 -1.019,0 -1.848,0.319 -2.487,0.957 l 0.53,0.53 c 0.531,-0.53 1.19,-0.795 1.978,-0.795 0.53,0 0.948,0.119 1.254,0.357 0.305,0.238 0.458,0.569 0.458,0.988 0,0.403 -0.116,0.704 -0.346,0.909 -0.184,0.162 -0.5,0.277 -0.948,0.345 l -0.846,0.133 c -1.257,0.197 -1.886,0.832 -1.886,1.906 0,0.62 0.209,1.116 0.627,1.489 0.418,0.373 0.984,0.56 1.697,0.56 0.849,0 1.57,-0.265 2.161,-0.795 l -0.499,-0.5 C -0.588,5.943 -1.152,6.15 -1.825,6.15 -2.3,6.15 -2.674,6.029 -2.946,5.785 -3.218,5.539 -3.354,5.213 -3.354,4.807 c 0,-0.368 0.113,-0.649 0.337,-0.842 0.224,-0.194 0.547,-0.324 0.968,-0.393 L -1.254,3.451 C -0.663,3.361 -0.221,3.191 0.071,2.941 0.479,2.594 0.683,2.115 0.683,1.504 0.683,0.871 0.455,0.371 0,0"
             style="fill:#231f20;fill-opacity:1;fill-rule:nonzero;stroke:none"
             id="path3551"
             inkscape:connector-curvature="0" /></g><g
           id="g3553"
           transform="translate(188.2158,214.3877)"><path
             d="m 0,0 -1.366,-3.832 2.711,0 L 0,0 Z m 2.15,-6.146 -0.581,1.64 -3.17,0 -0.581,-1.64 -0.825,0 2.671,7.257 0.652,0 2.66,-7.257 -0.826,0 z"
             style="fill:#231f20;fill-opacity:1;fill-rule:nonzero;stroke:none"
             id="path3555"
             inkscape:connector-curvature="0" /></g><g
           id="g3557"
           transform="translate(195.1714,214.8057)"><path
             d="m 0,0 0,-2.672 3.18,0 0,-0.691 -3.18,0 0,-3.201 -0.775,0 0,7.257 4.505,0 L 3.73,0 0,0 Z"
             style="fill:#231f20;fill-opacity:1;fill-rule:nonzero;stroke:none"
             id="path3559"
             inkscape:connector-curvature="0" /></g><g
           id="g3561"
           transform="translate(202.3408,208.2412)"><path
             d="m 0,0 0,7.258 4.505,0 0,-0.694 -3.73,0 0,-2.558 3.18,0 0,-0.693 -3.18,0 0,-2.62 3.73,0 L 4.505,0 0,0 Z"
             style="fill:#231f20;fill-opacity:1;fill-rule:nonzero;stroke:none"
             id="path3563"
             inkscape:connector-curvature="0" /></g><g
           id="g3565"
           transform="translate(219.6348,208.2412)"><path
             d="m 0,0 0,7.258 4.503,0 0,-0.694 -3.73,0 0,-2.558 3.179,0 0,-0.693 -3.179,0 0,-2.62 3.73,0 L 4.503,0 0,0 Z"
             style="fill:#231f20;fill-opacity:1;fill-rule:nonzero;stroke:none"
             id="path3567"
             inkscape:connector-curvature="0" /></g><path
           d="m 227.505,211.329 2.793,0 0,-0.684 -2.793,0 0,0.684 z"
           style="fill:#231f20;fill-opacity:1;fill-rule:nonzero;stroke:none"
           id="path3569"
           inkscape:connector-curvature="0" /><g
           id="g3571"
           transform="translate(236.2861,214.8057)"><path
             d="m 0,0 0,-6.564 -0.775,0 0,6.564 -2.1,0 0,0.693 4.975,0 L 2.1,0 0,0 Z"
             style="fill:#231f20;fill-opacity:1;fill-rule:nonzero;stroke:none"
             id="path3573"
             inkscape:connector-curvature="0" /></g><g
           id="g3575"
           transform="translate(245.5342,214.458)"><path
             d="m 0,0 c -0.264,0.232 -0.613,0.348 -1.049,0.348 l -1.937,0 0,-2.661 1.937,0 c 0.442,0 0.793,0.114 1.055,0.34 0.262,0.229 0.392,0.557 0.392,0.985 C 0.398,-0.561 0.266,-0.23 0,0 m 0.408,-6.217 -1.65,3.221 -1.744,0 0,-3.221 -0.774,0 0,7.258 2.781,0 c 0.641,0 1.159,-0.182 1.555,-0.547 0.399,-0.363 0.598,-0.853 0.598,-1.473 0,-0.515 -0.143,-0.943 -0.43,-1.283 -0.285,-0.34 -0.668,-0.56 -1.15,-0.662 l 1.722,-3.293 -0.908,0 z"
             style="fill:#231f20;fill-opacity:1;fill-rule:nonzero;stroke:none"
             id="path3577"
             inkscape:connector-curvature="0" /></g><g
           id="g3579"
           transform="translate(252.5713,214.3877)"><path
             d="m 0,0 -1.365,-3.832 2.711,0 L 0,0 Z m 2.152,-6.146 -0.582,1.64 -3.17,0 -0.58,-1.64 -0.826,0 2.67,7.257 0.652,0 2.661,-7.257 -0.825,0 z"
             style="fill:#231f20;fill-opacity:1;fill-rule:nonzero;stroke:none"
             id="path3581"
             inkscape:connector-curvature="0" /></g><g
           id="g3583"
           transform="translate(263.3799,208.2412)"><path
             d="m 0,0 -3.854,5.82 0,-5.82 -0.773,0 0,7.258 0.734,0 3.852,-5.801 0,5.801 0.775,0 L 0.734,0 0,0 Z"
             style="fill:#231f20;fill-opacity:1;fill-rule:nonzero;stroke:none"
             id="path3585"
             inkscape:connector-curvature="0" /></g><g
           id="g3587"
           transform="translate(271.9346,208.7354)"><path
             d="m 0,0 c -0.455,-0.371 -1.063,-0.555 -1.824,-0.555 -1.02,0 -1.848,0.319 -2.487,0.957 l 0.53,0.53 c 0.531,-0.53 1.189,-0.795 1.978,-0.795 0.53,0 0.948,0.119 1.254,0.357 0.305,0.238 0.457,0.569 0.457,0.988 0,0.403 -0.115,0.704 -0.346,0.909 -0.183,0.162 -0.5,0.277 -0.947,0.345 L -2.23,2.869 c -1.258,0.197 -1.887,0.832 -1.887,1.906 0,0.62 0.209,1.116 0.627,1.489 0.418,0.373 0.984,0.56 1.697,0.56 0.85,0 1.57,-0.265 2.16,-0.795 l -0.498,-0.5 C -0.586,5.943 -1.15,6.15 -1.824,6.15 -2.299,6.15 -2.674,6.029 -2.945,5.785 -3.217,5.539 -3.354,5.213 -3.354,4.807 c 0,-0.368 0.114,-0.649 0.338,-0.842 0.225,-0.194 0.547,-0.324 0.967,-0.393 l 0.797,-0.121 c 0.59,-0.09 1.031,-0.26 1.324,-0.51 C 0.48,2.594 0.684,2.115 0.684,1.504 0.684,0.871 0.457,0.371 0,0"
             style="fill:#231f20;fill-opacity:1;fill-rule:nonzero;stroke:none"
             id="path3589"
             inkscape:connector-curvature="0" /></g><g
           id="g3591"
           transform="translate(278.3506,214.3877)"><path
             d="m 0,0 -1.365,-3.832 2.711,0 L 0,0 Z m 2.15,-6.146 -0.58,1.64 -3.17,0 -0.582,-1.64 -0.826,0 2.672,7.257 0.652,0 2.661,-7.257 -0.827,0 z"
             style="fill:#231f20;fill-opacity:1;fill-rule:nonzero;stroke:none"
             id="path3593"
             inkscape:connector-curvature="0" /></g><g
           id="g3595"
           transform="translate(288.4561,208.7549)"><path
             d="m 0,0 c -0.455,-0.383 -1.01,-0.574 -1.662,-0.574 -0.733,0 -1.352,0.25 -1.854,0.754 -0.314,0.312 -0.513,0.693 -0.601,1.14 -0.055,0.307 -0.082,0.905 -0.082,1.795 0,0.891 0.027,1.489 0.082,1.793 0.088,0.449 0.287,0.83 0.601,1.143 0.502,0.502 1.121,0.754 1.854,0.754 0.66,0 1.213,-0.19 1.662,-0.571 0.449,-0.38 0.734,-0.912 0.855,-1.589 l -0.794,0 c -0.094,0.447 -0.293,0.804 -0.596,1.07 -0.303,0.264 -0.678,0.396 -1.127,0.396 -0.502,0 -0.92,-0.17 -1.254,-0.509 C -3.133,5.377 -3.275,5.096 -3.344,4.756 -3.398,4.457 -3.426,3.91 -3.426,3.115 c 0,-0.795 0.028,-1.342 0.082,-1.64 0.069,-0.34 0.211,-0.623 0.428,-0.848 0.334,-0.34 0.752,-0.51 1.254,-0.51 0.449,0 0.828,0.133 1.137,0.399 0.31,0.265 0.511,0.621 0.607,1.07 l 0.773,0 C 0.74,0.912 0.455,0.385 0,0"
             style="fill:#231f20;fill-opacity:1;fill-rule:nonzero;stroke:none"
             id="path3597"
             inkscape:connector-curvature="0" /></g><g
           id="g3599"
           transform="translate(295.1865,214.8057)"><path
             d="m 0,0 0,-6.564 -0.775,0 0,6.564 -2.1,0 0,0.693 4.975,0 L 2.1,0 0,0 Z"
             style="fill:#231f20;fill-opacity:1;fill-rule:nonzero;stroke:none"
             id="path3601"
             inkscape:connector-curvature="0" /></g><path
           d="m 300.675,215.499 0.775,0 0,-7.258 -0.775,0 0,7.258 z"
           style="fill:#231f20;fill-opacity:1;fill-rule:nonzero;stroke:none"
           id="path3603"
           inkscape:connector-curvature="0" /><g
           id="g3605"
           transform="translate(309.5283,213.501)"><path
             d="m 0,0 c -0.066,0.34 -0.209,0.621 -0.428,0.846 -0.34,0.345 -0.758,0.519 -1.254,0.519 -0.496,0 -0.914,-0.174 -1.254,-0.519 C -3.152,0.621 -3.295,0.34 -3.363,0 c -0.055,-0.293 -0.082,-0.836 -0.082,-1.631 0,-0.795 0.027,-1.34 0.082,-1.631 0.068,-0.34 0.211,-0.623 0.427,-0.845 0.34,-0.348 0.758,-0.522 1.254,-0.522 0.496,0 0.914,0.174 1.254,0.522 0.219,0.222 0.362,0.505 0.428,0.845 0.055,0.291 0.082,0.836 0.082,1.631 C 0.082,-0.836 0.055,-0.293 0,0 M 0.775,-3.426 C 0.688,-3.873 0.486,-4.254 0.174,-4.566 -0.328,-5.07 -0.947,-5.32 -1.682,-5.32 c -0.732,0 -1.351,0.25 -1.853,0.754 -0.315,0.312 -0.514,0.693 -0.602,1.14 -0.054,0.307 -0.082,0.905 -0.082,1.795 0,0.891 0.028,1.488 0.082,1.793 0.088,0.449 0.287,0.83 0.602,1.143 0.502,0.502 1.121,0.754 1.853,0.754 0.735,0 1.354,-0.252 1.856,-0.754 C 0.486,0.992 0.688,0.611 0.775,0.162 0.83,-0.143 0.857,-0.74 0.857,-1.631 c 0,-0.89 -0.027,-1.488 -0.082,-1.795"
             style="fill:#231f20;fill-opacity:1;fill-rule:nonzero;stroke:none"
             id="path3607"
             inkscape:connector-curvature="0" /></g><g
           id="g3609"
           transform="translate(318.8701,208.2412)"><path
             d="m 0,0 -3.854,5.82 0,-5.82 -0.775,0 0,7.258 0.734,0 3.854,-5.801 0,5.801 0.773,0 L 0.732,0 0,0 Z"
             style="fill:#231f20;fill-opacity:1;fill-rule:nonzero;stroke:none"
             id="path3611"
             inkscape:connector-curvature="0" /></g><g
           id="g3613"
           transform="translate(327.4229,208.7354)"><path
             d="m 0,0 c -0.455,-0.371 -1.063,-0.555 -1.824,-0.555 -1.02,0 -1.848,0.319 -2.487,0.957 l 0.53,0.53 c 0.531,-0.53 1.189,-0.795 1.978,-0.795 0.53,0 0.948,0.119 1.254,0.357 0.305,0.238 0.457,0.569 0.457,0.988 0,0.403 -0.115,0.704 -0.346,0.909 -0.183,0.162 -0.5,0.277 -0.947,0.345 L -2.23,2.869 c -1.258,0.197 -1.887,0.832 -1.887,1.906 0,0.62 0.209,1.116 0.627,1.489 0.418,0.373 0.984,0.56 1.697,0.56 0.85,0 1.57,-0.265 2.16,-0.795 l -0.498,-0.5 C -0.586,5.943 -1.15,6.15 -1.824,6.15 -2.299,6.15 -2.674,6.029 -2.945,5.785 -3.217,5.539 -3.354,5.213 -3.354,4.807 c 0,-0.368 0.114,-0.649 0.338,-0.842 0.225,-0.194 0.547,-0.324 0.967,-0.393 l 0.797,-0.121 c 0.59,-0.09 1.031,-0.26 1.324,-0.51 C 0.48,2.594 0.684,2.115 0.684,1.504 0.684,0.871 0.457,0.371 0,0"
             style="fill:#231f20;fill-opacity:1;fill-rule:nonzero;stroke:none"
             id="path3615"
             inkscape:connector-curvature="0" /></g><g
           id="g3617"
           transform="translate(180.4307,230.6855)"><path
             d="m 0,0 0,-1.969 4.584,0 0,2.11 c 0,0.487 -0.16,0.89 -0.478,1.209 -0.319,0.318 -0.722,0.478 -1.21,0.478 l -1.068,0 C 1.153,1.828 0.679,1.673 0.408,1.364 0.136,1.055 0,0.6 0,0 m 6.019,-10.125 -3.629,0 c -1.65,0 -2.859,0.352 -3.628,1.055 -0.769,0.703 -1.153,1.851 -1.153,3.445 l 0,5.062 c 0,1.613 0.347,2.766 1.041,3.46 0.693,0.693 1.847,1.041 3.459,1.041 l 0.76,0 c 2.699,0 4.049,-1.454 4.049,-4.36 l 0,-3.656 -6.918,0 0,-2.109 c 0,-1.219 0.703,-1.828 2.109,-1.828 l 3.91,0 0,-2.11 z"
             style="fill:#00aeef;fill-opacity:1;fill-rule:nonzero;stroke:none"
             id="path3619"
             inkscape:connector-curvature="0" /></g><path
           d="m 200.989,228.295 -9.14,0 0,2.109 9.14,0 0,-2.109 z"
           style="fill:#231f20;fill-opacity:1;fill-rule:nonzero;stroke:none"
           id="path3621"
           inkscape:connector-curvature="0" /><g
           id="g3623"
           transform="translate(213.4756,220.561)"><path
             d="M 0,0 -3.066,0 C -4.716,0 -5.925,0.352 -6.694,1.055 -7.463,1.758 -7.847,2.906 -7.847,4.5 l 0,5.062 c 0,1.575 0.389,2.718 1.167,3.431 0.778,0.713 1.983,1.069 3.614,1.069 l 3.066,0 0,-2.109 -3.347,0 c -1.406,0 -2.109,-0.61 -2.109,-1.828 l 0,-6.187 c 0,-1.22 0.703,-1.829 2.109,-1.829 L 0,2.109 0,0 Z"
             style="fill:#231f20;fill-opacity:1;fill-rule:nonzero;stroke:none"
             id="path3625"
             inkscape:connector-curvature="0" /></g><g
           id="g3627"
           transform="translate(224.3838,224.4985)"><path
             d="m 0,0 0,6.187 c 0,1.219 -0.703,1.828 -2.109,1.828 l -0.928,0 c -1.404,0 -2.107,-0.609 -2.107,-1.828 l 0,-6.187 c 0,-1.219 0.703,-1.828 2.107,-1.828 l 0.928,0 C -0.703,-1.828 0,-1.219 0,0 M 2.391,0.563 C 2.391,-1.013 2,-2.156 1.223,-2.869 0.445,-3.582 -0.76,-3.938 -2.39,-3.938 l -0.366,0 c -1.629,0 -2.832,0.356 -3.611,1.069 -0.778,0.713 -1.167,1.856 -1.167,3.432 l 0,5.062 c 0,1.575 0.389,2.718 1.167,3.431 0.779,0.712 1.982,1.069 3.611,1.069 l 0.366,0 c 1.63,0 2.835,-0.357 3.613,-1.069 C 2,8.343 2.391,7.2 2.391,5.625 l 0,-5.062 z"
             style="fill:#231f20;fill-opacity:1;fill-rule:nonzero;stroke:none"
             id="path3629"
             inkscape:connector-curvature="0" /></g><g
           id="g3631"
           transform="translate(233.665,220.561)"><path
             d="m 0,0 -2.391,0 0,14.062 2.25,0 0,-0.675 c 0.58,0.45 1.33,0.675 2.25,0.675 l 0.731,0 c 1.519,0 2.648,-0.356 3.389,-1.069 C 6.969,12.28 7.34,11.137 7.34,9.562 L 7.34,0 4.949,0 l 0,10.125 c 0,0.562 -0.164,1.007 -0.492,1.335 -0.328,0.328 -0.773,0.493 -1.336,0.493 l -1.293,0 C 1.209,11.953 0.748,11.788 0.449,11.46 0.148,11.132 0,10.781 0,10.406 L 0,0 Z"
             style="fill:#231f20;fill-opacity:1;fill-rule:nonzero;stroke:none"
             id="path3633"
             inkscape:connector-curvature="0" /></g><g
           id="g3635"
           transform="translate(251.4385,220.561)"><path
             d="M 0,0 -2.699,0 C -3.656,0 -4.387,0.31 -4.895,0.928 -5.4,1.547 -5.652,2.362 -5.652,3.375 l 0,8.578 -1.828,0 0,2.109 1.828,0 0,3.375 2.39,0 0,-3.375 3.262,0 0,-2.109 -3.262,0 0,-8.719 c 0,-0.75 0.422,-1.125 1.266,-1.125 L 0,2.109 0,0 Z"
             style="fill:#231f20;fill-opacity:1;fill-rule:nonzero;stroke:none"
             id="path3637"
             inkscape:connector-curvature="0" /></g><g
           id="g3639"
           transform="translate(257.0635,220.561)"><path
             d="m 0,0 -2.391,0 0,14.062 2.25,0 0,-0.759 c 0.618,0.506 1.368,0.759 2.25,0.759 l 2.053,0 0,-2.25 -2.334,0 c -0.619,0 -1.08,-0.207 -1.379,-0.619 C 0.148,10.781 0,10.378 0,9.984 L 0,0 Z"
             style="fill:#231f20;fill-opacity:1;fill-rule:nonzero;stroke:none"
             id="path3641"
             inkscape:connector-curvature="0" /></g><g
           id="g3643"
           transform="translate(268.9326,222.6704)"><path
             d="m 0,0 c 0.617,0 1.002,0.168 1.152,0.506 0.094,0.263 0.141,0.563 0.141,0.9 l 0,3.094 -2.953,0 C -2.148,4.5 -2.551,4.34 -2.869,4.021 -3.188,3.703 -3.348,3.3 -3.348,2.813 l 0,-1.407 c 0,-0.488 0.114,-0.843 0.338,-1.069 C -2.785,0.112 -2.43,0 -1.941,0 L 0,0 Z m 5.09,-2.109 -1.547,0 c -0.563,0 -1.078,0.281 -1.547,0.843 C 1.564,-1.828 0.992,-2.109 0.281,-2.109 l -1.941,0 c -1.426,0 -2.461,0.285 -3.108,0.858 -0.646,0.571 -0.97,1.551 -0.97,2.939 l 0,0.562 c 0,2.906 1.369,4.359 4.107,4.359 l 2.924,0 0,1.406 c 0,1.219 -0.703,1.828 -2.109,1.828 l -3.797,0 0,2.11 3.515,0 c 1.631,0 2.836,-0.357 3.614,-1.069 0.779,-0.713 1.168,-1.856 1.168,-3.431 l 0,-6.75 c 0,-0.562 0.468,-0.844 1.406,-0.844 l 0,-1.968 z"
             style="fill:#231f20;fill-opacity:1;fill-rule:nonzero;stroke:none"
             id="path3645"
             inkscape:connector-curvature="0" /></g><g
           id="g3647"
           transform="translate(285.2432,220.561)"><path
             d="m 0,0 -3.064,0 c -1.651,0 -2.86,0.352 -3.629,1.055 -0.77,0.703 -1.153,1.851 -1.153,3.445 l 0,5.062 c 0,1.575 0.389,2.718 1.166,3.431 0.78,0.713 1.983,1.069 3.616,1.069 l 3.064,0 0,-2.109 -3.346,0 c -1.406,0 -2.109,-0.61 -2.109,-1.828 l 0,-6.187 c 0,-1.22 0.703,-1.829 2.109,-1.829 L 0,2.109 0,0 Z"
             style="fill:#231f20;fill-opacity:1;fill-rule:nonzero;stroke:none"
             id="path3649"
             inkscape:connector-curvature="0" /></g><g
           id="g3651"
           transform="translate(294.9736,220.561)"><path
             d="M 0,0 -2.699,0 C -3.656,0 -4.387,0.31 -4.895,0.928 -5.4,1.547 -5.652,2.362 -5.652,3.375 l 0,8.578 -1.828,0 0,2.109 1.828,0 0,3.375 2.39,0 0,-3.375 3.262,0 0,-2.109 -3.262,0 0,-8.719 c 0,-0.75 0.422,-1.125 1.266,-1.125 L 0,2.109 0,0 Z"
             style="fill:#231f20;fill-opacity:1;fill-rule:nonzero;stroke:none"
             id="path3653"
             inkscape:connector-curvature="0" /></g><path
           d="m 300.599,220.561 -2.813,0 0,2.813 2.813,0 0,-2.813 z"
           style="fill:#231f20;fill-opacity:1;fill-rule:nonzero;stroke:none"
           id="path3655"
           inkscape:connector-curvature="0" /><g
           id="g3657"
           transform="translate(309.1768,232.5137)"><path
             d="M 0,0 C -0.619,0 -1.08,-0.165 -1.379,-0.492 -1.68,-0.82 -1.828,-1.172 -1.828,-1.547 l 0,-8.296 2.84,0 c 1.406,0 2.109,0.609 2.109,1.828 l 0,6.187 C 3.121,-0.609 2.418,0 1.012,0 L 0,0 Z m 5.512,-7.453 c 0,-1.575 -0.389,-2.718 -1.168,-3.431 -0.778,-0.713 -1.983,-1.069 -3.614,-1.069 l -4.949,0 0,19.687 2.391,0 0,-6.187 c 0.562,0.375 1.265,0.562 2.109,0.562 l 0.449,0 c 1.651,0 2.86,-0.351 3.629,-1.054 0.768,-0.703 1.153,-1.852 1.153,-3.446 l 0,-5.062 z"
             style="fill:#231f20;fill-opacity:1;fill-rule:nonzero;stroke:none"
             id="path3659"
             inkscape:connector-curvature="0" /></g><g
           id="g3661"
           transform="translate(321.2959,230.6855)"><path
             d="m 0,0 0,-1.969 4.584,0 0,2.11 c 0,0.487 -0.158,0.89 -0.479,1.209 -0.318,0.318 -0.72,0.478 -1.209,0.478 l -1.068,0 C 1.154,1.828 0.68,1.673 0.408,1.364 0.137,1.055 0,0.6 0,0 m 6.02,-10.125 -3.629,0 c -1.651,0 -2.86,0.352 -3.627,1.055 -0.77,0.703 -1.155,1.851 -1.155,3.445 l 0,5.062 c 0,1.613 0.348,2.766 1.041,3.46 0.694,0.693 1.846,1.041 3.459,1.041 l 0.76,0 c 2.699,0 4.049,-1.454 4.049,-4.36 l 0,-3.656 -6.918,0 0,-2.109 c 0,-1.219 0.703,-1.828 2.109,-1.828 l 3.911,0 0,-2.11 z"
             style="fill:#231f20;fill-opacity:1;fill-rule:nonzero;stroke:none"
             id="path3663"
             inkscape:connector-curvature="0" /></g></g></g><g
       id="g3665"><g
         id="g3667"><g
           id="g3673"><g
             id="g3675"><path
               d="m 113.305,221.704 c 0,-13.99 11.336,-25.326 25.324,-25.326 l 0,0 c 13.987,0 25.325,11.336 25.325,25.326 l 0,0 c 0,13.985 -11.338,25.323 -25.325,25.323 l 0,0 c -13.988,0 -25.324,-11.338 -25.324,-25.323"
               style="fill:url(#linearGradient3677);stroke:none"
               id="path3689"
               inkscape:connector-curvature="0" /></g></g></g></g><g
       id="g3691"><g
         id="g3693"
         clip-path="url(#clipPath3695)"><g
           id="g3699"
           transform="translate(138.6289,236.6489)"><path
             d="m 0,0 c 3.113,0 5.646,-2.532 5.646,-5.645 l 0,-5.574 -11.292,0 0,5.574 C -5.646,-2.532 -3.113,0 0,0 m 9.554,-11.412 0,5.767 c 0,5.268 -4.286,9.553 -9.554,9.553 -5.268,0 -9.554,-4.285 -9.554,-9.553 l 0,-5.767 c -0.954,-0.387 -1.628,-1.319 -1.628,-2.412 l 0,-15.418 c 0,-1.439 1.166,-2.605 2.605,-2.605 l 17.154,0 c 1.439,0 2.605,1.166 2.605,2.605 l 0,15.418 c 0,1.093 -0.674,2.025 -1.628,2.412"
             style="fill:#ffffff;fill-opacity:1;fill-rule:nonzero;stroke:none"
             id="path3701"
             inkscape:connector-curvature="0" /></g><g
           id="g3703"
           transform="translate(140.1196,216.0928)"><path
             d="M 0,0 0,0.816 C 0,1.23 -0.143,1.58 -0.429,1.869 -0.716,2.157 -1.059,2.301 -1.458,2.301 l -0.065,0 c -0.4,0 -0.743,-0.144 -1.029,-0.432 C -2.839,1.58 -2.982,1.23 -2.982,0.816 l 0,-0.816 c 0,-0.055 0.033,-0.082 0.097,-0.082 l 2.788,0 C -0.032,-0.082 0,-0.055 0,0 M 1.588,-0.859 C 1.588,-1.086 1.513,-1.277 1.361,-1.434 1.21,-1.592 1.021,-1.67 0.794,-1.67 l -3.679,0 c -0.064,0 -0.097,-0.027 -0.097,-0.08 l 0,-0.811 c 0,-0.4 0.143,-0.742 0.43,-1.029 0.286,-0.287 0.629,-0.43 1.029,-0.43 l 0.065,0 c 0.572,0 0.999,0.254 1.28,0.762 0.151,0.281 0.383,0.422 0.697,0.422 0.227,0 0.416,-0.078 0.567,-0.234 0.151,-0.159 0.227,-0.344 0.227,-0.561 0,-0.14 -0.033,-0.269 -0.097,-0.389 -0.259,-0.486 -0.63,-0.873 -1.111,-1.158 -0.48,-0.287 -1.002,-0.429 -1.563,-0.429 l -0.065,0 c -0.843,0 -1.561,0.296 -2.156,0.89 -0.594,0.596 -0.891,1.313 -0.891,2.156 l 0,3.387 c 0,0.844 0.297,1.565 0.891,2.165 0.595,0.6 1.313,0.9 2.156,0.9 l 0.065,0 c 0.842,0 1.561,-0.3 2.155,-0.9 0.594,-0.6 0.891,-1.321 0.891,-2.165 l 0,-1.685 z"
             style="fill:#00aeef;fill-opacity:1;fill-rule:nonzero;stroke:none"
             id="path3705"
             inkscape:connector-curvature="0" /></g></g></g></g></svg>
